<?xml version="1.0" encoding="UTF-8" standalone="no"?>
<!DOCTYPE svg PUBLIC "-//W3C//DTD SVG 1.1//EN" "http://www.w3.org/Graphics/SVG/1.1/DTD/svg11.dtd">
<svg width="100%" height="100%" viewBox="0 0 749 79" version="1.1" xmlns="http://www.w3.org/2000/svg" xmlns:xlink="http://www.w3.org/1999/xlink" xml:space="preserve" xmlns:serif="http://www.serif.com/" style="fill-rule:evenodd;clip-rule:evenodd;stroke-linejoin:round;stroke-miterlimit:2;">
    <g transform="matrix(1,0,0,1,-401.283,-1130.84)">
        <g id="Artboard9" transform="matrix(1.16987,0,0,0.488529,-43.2683,583.85)">
            <rect x="380" y="1119.66" width="640" height="160" style="fill:none;"/>
            <g transform="matrix(0.854795,0,0,2.04696,36.9856,-1195.12)">
                <path d="M709.595,1179.03C703.852,1179.03 700.08,1174.75 700.08,1169C700.08,1163.25 703.852,1158.97 709.595,1158.97C714.566,1158.97 716.795,1161.71 717.995,1164.97L740.88,1164.97C739.68,1149.12 726.909,1137.38 708.909,1137.38C688.857,1137.38 675.148,1150.66 675.148,1169C675.148,1187.34 688.857,1200.62 708.909,1200.62C726.911,1200.62 739.68,1188.88 740.88,1173.03L717.998,1173.03C716.795,1176.29 714.566,1179.03 709.595,1179.03ZM499.514,1137.38C479.456,1137.38 465.748,1150.66 465.748,1169C465.748,1187.34 479.456,1200.62 499.514,1200.62C519.572,1200.62 533.28,1187.34 533.28,1169C533.28,1150.66 519.572,1137.38 499.514,1137.38ZM433,1200.62C448.511,1200.62 460.595,1196.85 460.595,1179.72C460.595,1165.06 445.94,1163.51 440.198,1162.14C434.457,1160.77 428.115,1159.48 428.115,1156.48C428.115,1154.17 429.829,1153.22 432.486,1153.22C435.314,1153.23 437.628,1154.85 437.628,1157.94L458.795,1157.94C458.795,1142.17 444.912,1137.38 432.571,1137.38C422.802,1137.38 404.891,1138.32 404.891,1158.11C404.891,1167.97 411.061,1172 425.201,1175.94C431.886,1177.83 435.656,1178.35 435.656,1181.18C435.656,1183.06 434.114,1184.09 430.943,1184.09C427.944,1184.09 424.173,1182.8 424.173,1178.78L402.577,1178.78C402.577,1188.46 410.461,1200.62 433,1200.62ZM1117.6,1200.62C1133.11,1200.62 1145.19,1196.85 1145.19,1179.72C1145.19,1165.06 1130.54,1163.51 1124.8,1162.14C1119.06,1160.77 1112.71,1159.48 1112.71,1156.48C1112.71,1154.17 1114.43,1153.22 1117.09,1153.22C1119.91,1153.23 1122.23,1154.85 1122.23,1157.94L1143.39,1157.94C1143.39,1142.17 1129.51,1137.38 1117.17,1137.38C1107.4,1137.38 1089.49,1138.32 1089.49,1158.11C1089.49,1167.97 1095.66,1172 1109.8,1175.94C1116.49,1177.83 1120.26,1178.35 1120.26,1181.18C1120.26,1183.06 1118.71,1184.09 1115.54,1184.09C1112.54,1184.09 1108.77,1182.8 1108.77,1178.78L1087.18,1178.78C1087.18,1188.46 1095.06,1200.62 1117.6,1200.62ZM950.795,1139.01L890.805,1139.01L890.805,1159.39L909.405,1159.39L909.405,1199L932.195,1199L932.195,1159.39L950.795,1159.39L950.795,1139.01ZM861.491,1139.01L861.491,1168.83L860.891,1168.83L847.341,1139.01L817.948,1139.01L817.948,1199L840.823,1199L840.823,1169.17L841.424,1169.17L855.745,1199L884.366,1199L884.366,1139.01L861.491,1139.01ZM650.198,1199L674.709,1199L656.712,1139.01L622.945,1139.01L604.948,1199L629.459,1199L631.687,1189.48L647.97,1189.48L650.198,1199ZM787.427,1199L811.938,1199L793.94,1139.01L760.174,1139.01L742.177,1199L766.687,1199L768.916,1189.48L785.199,1189.48L787.427,1199ZM995.627,1199L1020.14,1199L1002.14,1139.01L968.374,1139.01L950.377,1199L974.887,1199L977.116,1189.48L993.399,1189.48L995.627,1199ZM1072.17,1168.14L1072.17,1167.54C1077.05,1166.94 1081.42,1161.63 1081.42,1154.34C1081.42,1143.29 1074.91,1139.01 1061.11,1139.01L1026.15,1139.01L1026.15,1199L1062.74,1199C1076.37,1199 1082.88,1193.6 1082.88,1182.63C1082.88,1175.34 1078.6,1169.26 1072.17,1168.14ZM572.286,1139.01L539.72,1139.01L539.72,1199L572.286,1199C592.771,1199 603.652,1187.52 603.652,1169C603.652,1150.49 592.771,1139.01 572.286,1139.01ZM1054.77,1183.66L1047.05,1183.66L1047.05,1175.42L1054.77,1175.42C1058.02,1175.42 1060.6,1176.11 1060.6,1179.54C1060.6,1183.06 1058.02,1183.66 1054.77,1183.66ZM499.514,1179.12C494.111,1179.12 489.652,1174.57 489.652,1169C489.652,1163.43 493.511,1158.88 499.514,1158.88C505.518,1158.88 509.377,1163.43 509.377,1169C509.377,1174.57 504.917,1179.12 499.514,1179.12ZM569.113,1178.43L562.595,1178.43L562.595,1159.57L569.113,1159.57C576.746,1159.57 579.834,1163.42 579.834,1169C579.834,1174.58 576.746,1178.43 569.113,1178.43ZM635.801,1171.58L638.629,1159.39L641.028,1159.39L643.857,1171.58L635.801,1171.58ZM773.029,1171.58L775.857,1159.39L778.257,1159.39L781.085,1171.58L773.029,1171.58ZM981.229,1171.58L984.057,1159.39L986.457,1159.39L989.285,1171.58L981.229,1171.58ZM1047.39,1153.65L1054.08,1153.65C1056.91,1153.65 1059.22,1154.17 1059.22,1157.17C1059.22,1160.18 1056.91,1160.61 1054.08,1160.61L1047.39,1160.61L1047.39,1153.65Z" style="fill:white;fill-rule:nonzero;"/>
            </g>
        </g>
    </g>
</svg>
